<!--?xml version="1.0" standalone="no"?-->              <svg id="sw-js-blob-svg" viewBox="0 0 100 100" xmlns="http://www.w3.org/2000/svg">                    <defs>                         <linearGradient id="sw-gradient" x1="0" x2="1" y1="1" y2="0">                            <stop id="stop1" stop-color="rgba(248, 117, 55, 1)" offset="0%"></stop>                            <stop id="stop2" stop-color="rgba(251, 168, 31, 1)" offset="100%"></stop>                        </linearGradient>                    </defs>                <path fill="none" d="M20.5,-28.6C28,-22.8,36.3,-18.7,40.2,-11.8C44.1,-5,43.6,4.5,40.4,12.8C37.2,21,31.4,28.1,24.2,33.2C17,38.3,8.5,41.3,-0.2,41.6C-8.8,41.8,-17.7,39.2,-25.1,34.1C-32.4,29.1,-38.3,21.8,-41.8,13.1C-45.3,4.4,-46.4,-5.5,-42,-12C-37.6,-18.5,-27.8,-21.6,-19.9,-27.2C-11.9,-32.8,-6,-41,0.3,-41.4C6.5,-41.8,13.1,-34.4,20.5,-28.6Z" width="100%" height="100%" transform="translate(50 50)" stroke-width="1" style="transition: all 0.3s ease 0s;" stroke="url(#sw-gradient)"></path>              </svg>